HIERARCHY
ROOT Hips
{
	OFFSET 0.0000 0.0000 0.0000
	CHANNELS 6 Xposition Yposition Zposition Zrotation Xrotation Yrotation
	JOINT Ab
	{
		OFFSET -0.0000 8.1305 -0.0000
		CHANNELS 3 Zrotation Xrotation Yrotation
		JOINT Chest
		{
			OFFSET -0.0000 26.2902 -0.0000
			CHANNELS 3 Zrotation Xrotation Yrotation
			JOINT Neck
			{
				OFFSET -0.0000 26.2902 0.0000
				CHANNELS 3 Zrotation Xrotation Yrotation
				JOINT Head
				{
					OFFSET -0.0000 10.8167 0.0000
					CHANNELS 3 Zrotation Xrotation Yrotation
					End Site
					{
						OFFSET -0.0000 16.7167 0.0000
					}
				}
			}
			JOINT LeftCollar
			{
				OFFSET -0.0000 26.2902 0.0000
				CHANNELS 3 Zrotation Xrotation Yrotation
				JOINT LeftShoulder
				{
					OFFSET 19.6667 -0.0000 0.0000
					CHANNELS 3 Zrotation Xrotation Yrotation
					JOINT LeftElbow
					{
						OFFSET 27.2190 0.0000 0.0000
						CHANNELS 3 Zrotation Xrotation Yrotation
						JOINT LeftWrist
						{
							OFFSET 30.7431 0.0000 0.0000
							CHANNELS 3 Zrotation Xrotation Yrotation
							End Site
							{
								OFFSET 0.0000 -14.7500 0.0000
							}
						}
					}
				}
			}
			JOINT RightCollar
			{
				OFFSET -0.0000 26.2902 0.0000
				CHANNELS 3 Zrotation Xrotation Yrotation
				JOINT RightShoulder
				{
					OFFSET -19.6667 0.0000 0.0000
					CHANNELS 3 Zrotation Xrotation Yrotation
					JOINT RightElbow
					{
						OFFSET -27.2190 0.0000 0.0000
						CHANNELS 3 Zrotation Xrotation Yrotation
						JOINT RightWrist
						{
							OFFSET -30.7431 0.0000 0.0000
							CHANNELS 3 Zrotation Xrotation Yrotation
							End Site
							{
								OFFSET -0.0000 -14.7500 0.0000
							}
						}
					}
				}
			}
		}
	}
	JOINT LeftHip
	{
		OFFSET 11.8000 0.0000 0.0000
		CHANNELS 3 Zrotation Xrotation Yrotation
		JOINT LeftKnee
		{
			OFFSET -0.0000 -39.7832 0.0000
			CHANNELS 3 Zrotation Xrotation Yrotation
			JOINT LeftAnkle
			{
				OFFSET -0.0000 -41.7317 0.0000
				CHANNELS 3 Zrotation Xrotation Yrotation
				End Site
				{
					OFFSET -0.0000 -4.9167 16.7167
				}
			}
		}
	}
	JOINT RightHip
	{
		OFFSET -11.8000 0.0000 0.0000
		CHANNELS 3 Zrotation Xrotation Yrotation
		JOINT RightKnee
		{
			OFFSET -0.0000 -39.7832 0.0000
			CHANNELS 3 Zrotation Xrotation Yrotation
			JOINT RightAnkle
			{
				OFFSET -0.0000 -41.7317 0.0000
				CHANNELS 3 Zrotation Xrotation Yrotation
				End Site
				{
					OFFSET -0.0000 -4.9167 16.7167
				}
			}
		}
	}
}
MOTION
Frames: 21
Frame Time: 0.010000
-5.7656 86.1238 86.7852 358.5744 350.1447 176.6529 359.0210 347.8064 3.9280 2.2501 11.7285 3.7990 352.3789 347.4952 357.3006 3.5576 8.7611 357.8658 338.2746 357.0670 15.2695 314.3182 45.6118 1.3319 2.8734 358.3541 311.7552 89.8320 352.2633 340.0150 27.5289 356.0906 344.2303 33.7968 50.7483 16.2536 333.2043 346.4768 53.5843 263.1747 351.5920 353.3451 353.7700 325.2088 359.5820 356.7976 27.7604 359.9961 0.2345 351.6667 20.4502 1.8180 16.5968 3.2465 5.6759 15.5881 16.7164 355.4443 329.2404 325.1799 
-5.7756 85.9695 85.4429 358.1613 350.2212 176.6448 358.4060 347.6696 3.7684 2.2500 11.8766 3.7038 352.5103 347.3863 357.3592 3.4389 8.6972 357.9269 337.9301 356.9717 15.5500 315.0423 46.0021 0.3497 3.5403 358.0266 311.2753 90.1480 352.2509 340.8276 27.6873 356.0881 344.2943 35.0152 50.3839 14.7861 333.8744 347.2287 52.0365 263.2737 351.5027 354.0449 353.0689 325.3996 358.7271 356.8332 28.6371 359.4244 1.0877 352.1435 21.4636 1.2196 16.6038 2.9442 5.6817 17.3798 17.1284 356.7830 329.0995 325.8516 
-5.8177 85.8826 84.1832 357.4894 350.1211 176.6511 357.5648 347.4466 3.5768 2.1851 12.0796 3.6110 352.5474 346.9806 357.3675 3.4586 8.7527 357.9548 337.6484 356.8691 15.8326 315.6955 46.3714 359.2186 4.3576 357.5829 310.7580 90.5778 352.2989 341.8897 27.8392 356.0777 344.3008 36.1791 49.9536 13.5763 334.4598 347.9709 50.0507 263.5893 351.1770 355.3059 352.1196 325.1159 357.6359 356.6021 30.3371 359.4657 1.8254 352.2732 22.4771 0.3529 16.0928 2.6138 5.7297 19.7079 17.8701 358.0433 329.1405 326.0844 
-5.8621 85.8422 82.9101 356.8159 350.1040 176.7822 356.7211 347.3271 3.3690 2.1071 12.2674 3.5038 352.6637 346.6005 357.3674 3.3152 8.8941 357.9705 337.5595 356.8192 16.0229 315.9708 46.9749 358.0907 5.4512 356.9894 310.4611 90.9693 352.4026 342.9480 27.9537 356.0674 344.3238 37.5293 49.4621 12.1526 334.9097 348.6361 48.0125 263.8811 351.0080 355.8559 351.0626 325.0691 356.1664 356.1614 31.8081 0.3264 2.3830 352.0323 22.8940 359.5062 15.6280 2.8038 5.9860 22.0041 17.5650 359.6681 329.5368 326.9278 
-5.9068 85.8375 81.6642 356.2030 350.0905 177.0222 355.9164 347.3259 3.1665 2.0988 12.3019 3.3895 352.6551 346.4118 357.3131 3.1982 8.9453 357.9346 337.2765 356.7551 16.0635 316.8312 47.3259 356.7971 5.9965 356.7747 309.9566 91.1749 352.6053 343.6521 27.9937 356.0756 344.4422 39.2712 48.6392 10.2005 335.2821 349.2446 46.0195 264.6355 350.9847 356.5649 350.0516 325.2314 354.4281 355.4787 32.8761 1.8186 3.1336 351.9597 22.6079 358.7466 14.9859 3.0392 6.3892 24.5147 16.8256 1.3236 330.2268 327.9192 
-5.9481 85.8663 80.4255 355.7325 350.1357 177.3488 355.2364 347.5052 3.0260 2.0924 12.1740 3.3206 352.5697 346.4368 357.2311 3.3221 8.8191 357.8548 337.0066 356.7242 15.8984 317.4957 47.6845 355.7614 6.5929 356.4878 309.4633 91.2275 352.4104 344.0682 28.0287 356.0842 344.6085 41.1380 47.6628 7.9538 335.5766 349.8018 44.0696 265.5105 350.8406 356.9386 349.2128 325.5993 353.4719 355.1904 33.8116 2.2415 3.7490 351.6989 22.5328 358.1214 14.1208 2.6105 6.6650 27.4903 16.2683 3.2721 331.2909 329.2995 
-5.9987 85.9087 79.1664 355.4423 350.2778 177.6354 355.0196 347.6343 2.8851 1.7389 12.3654 3.2280 352.7389 345.9945 357.2018 3.0700 9.2229 357.8468 337.0918 356.7668 15.8409 317.9462 48.2500 354.4023 7.4867 355.9594 309.1235 90.7983 352.2051 344.0781 28.0957 356.1281 345.0548 43.1107 46.4636 5.4782 335.9096 350.3564 42.3333 265.8403 350.9714 357.4926 348.5443 326.2617 353.3385 355.5674 34.4976 1.6969 4.1200 351.3682 22.7835 357.5313 13.1642 2.0626 7.0869 30.7030 15.8952 4.8917 332.7499 330.3291 
-6.0380 85.9473 77.9244 355.2877 350.5144 177.8394 354.9972 347.9074 2.8033 1.3596 12.4866 3.1782 352.6085 345.8327 357.1960 3.1995 9.3345 357.8623 337.2483 356.8085 15.8863 318.3397 48.9840 353.0121 8.5298 355.3410 308.7098 90.6491 352.1309 344.5029 28.1686 356.2188 345.5946 44.8053 45.3936 3.1321 336.2185 350.8653 40.6803 266.1784 351.3271 358.0431 348.0702 327.1587 353.5580 356.1658 34.9755 0.7484 4.6338 351.0412 22.8855 356.9532 12.1414 1.4372 7.6337 34.0287 15.2426 6.2643 334.6385 331.4940 
-6.0793 85.9742 76.6347 355.2705 350.8898 177.9958 355.1403 348.3191 2.7776 0.9825 12.4799 3.1628 352.5107 345.7606 357.2032 3.2954 9.6746 357.8631 337.3628 356.8087 15.8981 318.8717 49.7766 351.7229 9.5322 354.7774 308.1331 91.1192 352.0082 345.6856 28.3072 356.3051 345.9831 46.0289 44.6505 1.0932 336.4485 351.2954 39.0522 266.5316 351.8218 358.3017 347.6945 328.4367 353.8492 357.0109 35.0709 359.7987 4.9630 350.5897 22.8968 356.4082 11.1889 0.8421 8.3749 37.2929 13.9508 7.4940 336.8470 332.8951 
-6.0909 86.0031 75.3783 355.3568 351.2637 178.0949 355.2675 348.7937 2.7797 0.8182 12.3523 3.1529 352.4624 345.8946 357.2530 3.3527 9.9078 357.9013 337.5501 356.8394 15.9449 319.2416 50.6350 350.3310 10.5565 354.1884 307.5962 91.6033 352.1622 347.0048 28.3796 356.3813 346.1943 46.7622 44.0652 359.4545 336.8874 351.7735 37.7216 267.0760 352.2277 358.7036 347.5400 329.6364 354.5687 357.9784 35.2398 358.6189 5.4348 349.9707 22.9589 355.9247 10.0731 0.5774 9.3751 40.6860 13.1087 8.0046 339.1983 333.3104 
-6.0986 86.0496 74.1384 355.3978 351.5896 178.1029 355.2856 349.2696 2.7981 0.7926 12.0959 3.1570 352.4903 346.0590 357.3427 3.2492 10.2241 357.9781 337.6464 356.8292 16.0576 319.7430 51.3543 348.9564 11.4659 353.6699 306.9063 92.2308 352.4261 348.3650 28.5718 356.4454 346.6093 47.3603 43.0471 357.4015 337.4988 352.2552 36.8984 267.7751 352.5263 359.5348 347.4639 330.8599 354.9259 358.4024 35.2026 358.3080 5.8312 349.3764 22.9598 355.4261 8.7654 0.4588 10.4399 44.1331 12.1019 7.5667 341.6204 333.5729 
-6.0944 86.1189 72.9624 355.4213 351.8222 178.1472 355.2406 349.7491 2.7527 0.7565 11.7124 3.0995 352.8356 346.2664 357.4417 2.8987 10.5306 358.0383 337.6738 356.7978 16.0865 320.4443 51.9589 347.6612 12.2879 353.2053 306.0638 92.8015 352.7470 349.5895 28.7829 356.4956 346.8076 47.6996 42.1431 355.8035 338.1792 352.7225 36.0091 268.5902 352.4709 0.6918 347.4378 331.9926 354.7227 358.3427 35.0747 358.6643 6.1561 348.9407 22.8490 354.9763 7.2110 0.2602 11.4912 47.7005 11.2953 6.6025 343.8379 333.4879 
-6.1015 86.2214 71.7871 355.3882 351.9402 178.1711 355.2245 349.9153 2.5865 0.6696 11.7597 2.9333 352.8914 346.2377 357.5981 2.9245 10.7202 358.1884 338.1766 356.8755 16.3670 320.6537 53.1168 345.7203 13.9120 352.0972 305.7277 92.7771 352.6076 350.8449 28.8768 356.5640 347.0210 47.8047 41.0498 354.4817 339.1108 353.2823 35.5167 269.2182 352.1639 2.2632 347.5053 333.0917 354.3978 357.9093 34.7725 359.1053 6.3471 348.5199 23.0210 354.4318 5.4504 0.3806 13.1743 51.0372 10.4086 5.2788 345.1406 333.0524 
-6.1086 86.3633 70.6460 355.2415 351.9444 178.1027 355.1098 349.9539 2.4087 0.5750 11.7962 2.7737 352.9622 346.2076 357.8256 2.9034 10.9553 358.4130 338.3799 356.8501 16.7709 321.8675 54.0640 343.3758 15.2183 351.3613 305.0559 93.1063 352.7153 352.0214 29.0284 356.6130 347.2745 47.6468 40.0028 353.2894 340.1688 353.7974 35.3377 269.8681 351.8969 4.1284 347.5141 334.1046 354.2825 357.5642 34.3204 359.6684 6.3876 348.1645 22.8677 353.8276 3.3702 0.4598 14.9097 54.4171 9.6137 4.4664 344.9483 332.1434 
-6.0964 86.5080 69.5068 355.1853 351.9399 178.0933 354.9773 349.9907 2.2277 0.6339 11.7935 2.5960 353.1775 346.2089 358.0805 2.6625 11.2109 358.6586 338.4913 356.7977 17.0943 323.2544 54.8425 340.9848 16.2789 350.7775 304.3185 93.5872 352.6962 352.8125 29.0909 356.6634 347.3934 47.4599 39.0842 352.1627 341.1403 354.1811 35.4109 270.4178 351.5807 6.1857 347.7170 335.1393 354.4195 357.2330 33.8316 359.6465 6.6223 347.8567 22.9616 353.3431 1.3167 0.6701 17.0162 57.3252 8.2464 4.2619 344.0501 331.1370 
-6.0782 86.6739 68.3851 355.1797 351.9302 178.1563 354.8718 350.0861 2.0333 0.7246 11.6843 2.3974 353.4431 346.3774 358.3070 2.3893 11.3180 358.8654 338.5230 356.7421 17.2930 324.7256 55.5084 338.7186 17.2450 350.1864 303.4725 93.8055 352.5346 353.6569 29.1490 356.6724 347.3250 47.1552 38.2896 351.1963 342.0716 354.5000 35.6295 271.1898 351.2946 8.1034 347.9704 336.1941 354.6150 356.9882 33.2958 359.4626 6.6204 347.5068 23.0092 352.9152 359.2502 0.8722 19.5496 59.7827 6.0984 3.0167 343.6180 330.2376 
-6.0604 86.8513 67.2571 355.2228 351.9587 178.2722 354.7873 350.1821 1.8282 0.8792 11.6358 2.1798 353.6990 346.5449 358.4880 2.1126 11.4174 359.0268 338.4952 356.7151 17.2826 325.9741 55.9435 336.8359 18.0877 349.6071 302.4016 93.7919 352.5960 354.0786 29.1639 356.6593 347.1783 46.7591 37.3858 350.3434 342.9639 354.7656 36.0023 271.7025 351.0280 9.7863 348.2705 337.3514 355.0045 356.8653 32.6619 359.1331 6.5440 347.1733 22.9485 352.4921 357.2707 0.8128 22.0054 61.8477 3.9606 1.4843 343.4927 329.4764 
-6.0388 87.0281 66.1169 355.3738 352.0178 178.4640 354.8452 350.2259 1.5845 0.9899 11.7502 1.9141 354.0808 346.6270 358.6589 1.6921 11.5416 359.1864 338.4357 356.7164 17.1954 327.3865 56.1905 334.8745 18.8073 349.0472 301.2758 93.5871 352.6549 354.0666 29.1280 356.6219 346.9486 46.3496 36.5271 349.6426 343.7918 354.9830 36.4816 271.9218 350.8583 11.1983 348.6406 338.5693 355.6162 356.9346 32.0055 358.5555 6.4383 346.8578 22.8115 352.1509 355.3661 0.4628 24.2170 63.6345 2.0613 0.6560 342.9459 328.8137 
-6.0110 87.2133 64.9676 355.6206 352.0651 178.7241 355.0316 350.2097 1.2995 1.0504 11.9345 1.6022 354.4802 346.7413 358.8689 1.3653 11.5653 359.3798 338.3150 356.7084 17.1823 329.2289 56.3288 332.5502 19.4235 348.5222 300.2337 93.5866 352.5496 354.2751 29.0719 356.5795 346.7212 46.0080 35.7609 348.9186 344.4525 355.1069 37.0303 271.9366 350.7617 11.9914 349.0597 339.8163 356.2714 357.0834 31.2832 358.0479 6.3545 346.5935 22.5145 351.9117 353.4874 0.1910 26.7712 65.0064 359.6413 359.6275 342.6315 328.3170 
-5.9682 87.4102 63.8199 355.8730 352.1110 178.9856 355.1305 350.3018 1.0576 1.2572 11.8390 1.3311 354.8470 347.1799 359.0596 0.9571 11.5192 359.5473 338.1028 356.6603 17.1315 330.9685 56.4586 330.5345 19.9547 348.0256 299.1777 93.5546 352.3928 354.2918 28.9178 356.5456 346.4759 45.8142 35.1900 348.0562 344.8965 355.1258 37.5857 271.8977 350.7496 12.1403 349.4820 341.1176 356.9749 357.2771 30.4591 357.5039 6.4267 346.4004 22.2003 351.7327 351.6392 359.8295 28.9272 66.0844 357.6055 359.0070 342.6514 327.6866 
-5.9630 87.5999 62.6836 356.0932 352.2132 179.2326 355.3252 350.4565 0.8281 1.3130 11.7924 1.0711 355.0559 347.4663 359.1721 0.8486 11.5835 359.6322 337.9217 356.6223 17.0784 333.0707 56.5108 328.2341 20.3533 347.5952 298.0487 94.2558 352.7175 354.3764 28.6516 356.5116 346.0401 45.7858 34.8645 347.5112 345.1036 355.0747 37.9164 271.8176 350.7461 12.1729 349.8094 342.4971 357.6260 357.4862 29.5719 357.2732 6.1530 346.1436 21.6410 351.4689 349.8283 359.4820 30.9834 66.9655 355.3015 357.4864 342.5102 327.5290 
